<?xml version="1.0" standalone="no"?>
<!DOCTYPE svg PUBLIC "-//W3C//DTD SVG 20010904//EN"
 "http://www.w3.org/TR/2001/REC-SVG-20010904/DTD/svg10.dtd">
<svg version="1.0" xmlns="http://www.w3.org/2000/svg"
 width="512.000000pt" height="512.000000pt" viewBox="0 0 512.000000 512.000000"
 preserveAspectRatio="xMidYMid meet">
<metadata>
Created by potrace 1.14, written by Peter Selinger 2001-2017
</metadata>
<g transform="translate(0.000000,512.000000) scale(0.100000,-0.100000)"
fill="#000000" stroke="none">
<path d="M0 2560 l0 -2560 2560 0 2560 0 0 2560 0 2560 -2560 0 -2560 0 0
-2560z m1665 1274 c6 -22 14 -73 18 -112 7 -81 1 -89 -78 -102 -96 -17 -171
-35 -178 -45 -10 -14 -3 -65 33 -222 6 -29 15 -76 20 -105 5 -29 16 -89 25
-133 9 -44 20 -102 25 -130 5 -27 16 -84 25 -125 8 -41 20 -100 25 -130 5 -30
16 -89 25 -130 8 -41 19 -97 24 -125 24 -134 33 -183 41 -215 7 -30 25 -121
45 -225 3 -16 13 -64 22 -105 8 -41 18 -96 20 -123 3 -31 11 -50 22 -57 16 -8
21 3 45 93 15 56 31 116 35 132 5 17 16 56 25 88 9 31 23 83 32 115 9 31 18
68 21 82 2 14 8 34 13 45 7 18 26 85 50 175 22 83 42 158 56 204 8 26 14 57
14 67 0 10 4 20 9 23 5 3 11 20 14 38 6 42 26 117 37 143 5 11 18 56 29 100
11 44 32 123 47 175 55 201 74 267 89 320 9 30 21 71 25 90 29 117 36 139 49
154 12 14 41 16 221 16 l207 0 16 -42 c9 -24 21 -63 27 -88 30 -122 33 -131
70 -265 37 -134 50 -181 73 -275 7 -30 16 -62 19 -70 6 -14 17 -57 38 -140 5
-19 16 -62 25 -95 9 -33 20 -76 25 -95 12 -48 35 -133 55 -205 10 -33 21 -76
25 -95 5 -19 16 -62 25 -95 10 -33 21 -76 25 -95 5 -19 16 -60 25 -90 9 -30
21 -73 25 -95 5 -22 16 -65 25 -95 9 -30 21 -71 25 -90 27 -109 37 -139 51
-161 l17 -24 7 50 c6 49 9 66 40 214 8 40 15 86 15 102 0 16 4 37 9 47 5 9 15
49 21 87 7 39 16 93 20 120 5 28 16 88 25 135 9 47 20 108 25 135 5 28 16 88
25 135 10 47 21 105 25 130 4 25 13 72 19 105 7 33 16 83 21 110 5 28 16 83
25 124 8 40 15 88 15 106 0 17 3 35 8 39 7 8 26 105 38 202 l6 50 -98 19 c-55
10 -123 24 -152 32 l-54 15 6 41 c3 23 8 72 12 110 5 57 9 68 28 72 11 3 194
4 406 3 l385 -3 3 -128 3 -127 -33 -14 c-18 -8 -60 -22 -93 -32 -77 -24 -105
-41 -105 -67 0 -11 -6 -48 -14 -81 -8 -34 -19 -86 -25 -116 -5 -30 -17 -89
-26 -130 -31 -154 -58 -286 -65 -330 -4 -25 -15 -79 -24 -120 -9 -41 -21 -104
-26 -139 -6 -35 -12 -67 -15 -71 -2 -4 -9 -31 -14 -61 -5 -30 -17 -90 -26
-134 -9 -44 -21 -102 -26 -130 -5 -27 -16 -84 -24 -125 -9 -41 -20 -97 -25
-125 -6 -27 -17 -84 -26 -125 -8 -41 -19 -97 -23 -125 -5 -27 -16 -84 -26
-125 -9 -41 -21 -100 -26 -130 -18 -109 -35 -171 -49 -180 -8 -6 -119 -10
-246 -10 -261 0 -247 -4 -269 82 -22 87 -68 259 -100 373 -20 73 -43 158 -55
205 -24 95 -32 127 -40 145 -5 11 -11 34 -13 50 -3 17 -13 55 -22 85 -9 30
-20 71 -25 90 -4 19 -15 62 -25 95 -9 33 -20 74 -25 90 -4 17 -16 57 -25 90
-9 33 -21 80 -27 105 -5 25 -13 54 -18 65 -5 11 -11 31 -14 45 -6 29 -23 95
-71 265 -9 33 -25 94 -36 135 -28 110 -28 110 -46 70 -8 -19 -19 -51 -23 -70
-5 -19 -16 -62 -25 -95 -9 -33 -20 -76 -25 -95 -5 -19 -16 -62 -25 -95 -9 -33
-20 -76 -24 -95 -5 -19 -16 -62 -26 -95 -9 -33 -20 -76 -25 -95 -4 -19 -15
-62 -25 -95 -9 -33 -20 -76 -25 -95 -17 -79 -33 -136 -41 -152 -5 -10 -9 -27
-9 -38 0 -11 -6 -37 -14 -57 -7 -21 -21 -72 -31 -113 -9 -41 -20 -84 -25 -95
-4 -11 -17 -58 -28 -105 -11 -47 -28 -112 -37 -145 -10 -33 -21 -76 -26 -95
-22 -97 -30 -127 -38 -145 -6 -11 -12 -33 -15 -50 -11 -71 -29 -131 -44 -147
-14 -16 -39 -18 -262 -18 -279 0 -268 -3 -282 78 -4 26 -14 83 -23 127 -9 44
-20 100 -25 125 -31 163 -42 220 -50 260 -25 122 -42 210 -51 263 -5 33 -11
62 -13 66 -3 4 -10 34 -15 67 -6 32 -18 95 -27 139 -9 44 -19 100 -24 125 -4
25 -16 83 -25 130 -9 47 -21 105 -25 130 -5 25 -16 81 -25 125 -9 44 -20 103
-25 130 -5 28 -16 84 -25 125 -9 41 -20 98 -25 125 -4 28 -13 73 -19 100 -6
28 -16 70 -21 95 -20 104 -12 94 -100 120 -45 13 -83 27 -85 30 -2 4 -5 62 -6
130 -1 95 1 124 12 131 8 5 191 8 408 6 l394 -2 12 -41z"/>
</g>
</svg>
