<?xml version="1.0" standalone="no"?>
<!DOCTYPE svg PUBLIC "-//W3C//DTD SVG 20010904//EN"
 "http://www.w3.org/TR/2001/REC-SVG-20010904/DTD/svg10.dtd">
<svg version="1.0" xmlns="http://www.w3.org/2000/svg"
 width="1024.000000pt" height="1024.000000pt" viewBox="0 0 1024.000000 1024.000000"
 preserveAspectRatio="xMidYMid meet">
<metadata>
Created by potrace 1.14, written by Peter Selinger 2001-2017
</metadata>
<g transform="translate(0.000000,1024.000000) scale(0.100000,-0.100000)"
fill="#000000" stroke="none">
<path d="M0 5120 l0 -5120 5120 0 5120 0 0 5120 0 5120 -5120 0 -5120 0 0
-5120z m5413 3005 c589 -67 1176 -328 1652 -736 80 -69 276 -262 233 -230 -9
7 -22 10 -28 6 -6 -4 -15 6 -21 23 -8 23 -15 29 -29 25 -13 -3 -22 1 -26 12
-5 13 -9 14 -15 3 -7 -10 -9 -10 -9 2 0 9 6 22 13 30 10 12 9 12 -3 3 -8 -5
-25 -13 -37 -16 -19 -4 -23 -1 -23 18 0 18 -4 22 -20 18 -15 -4 -20 0 -20 15
0 15 -5 19 -21 15 -12 -3 -18 -11 -15 -19 4 -10 -3 -14 -19 -14 -20 0 -25 5
-25 24 0 13 -7 26 -15 30 -8 3 -15 12 -15 21 0 12 -15 15 -80 15 -48 0 -80 -4
-80 -10 0 -6 -12 -2 -27 9 -25 17 -53 20 -284 25 -177 4 -259 2 -266 -5 -8 -8
-22 -8 -48 1 -24 8 -33 15 -25 20 8 5 9 10 2 14 -18 11 -19 -18 -1 -49 9 -16
19 -50 22 -75 3 -25 3 -39 0 -32 -4 10 -9 7 -17 -9 -17 -35 -74 -69 -115 -69
-30 0 -44 -8 -76 -41 -164 -170 -586 -339 -847 -339 -40 0 -78 -4 -83 -8 -6
-4 -32 -34 -57 -67 -62 -81 -173 -185 -239 -223 -85 -48 -160 -66 -269 -65
-206 3 -336 89 -260 171 24 26 57 28 107 7 19 -8 73 -19 119 -25 91 -10 158 1
234 40 90 46 206 180 328 380 88 146 125 194 199 260 82 75 100 90 107 90 3 0
20 9 38 21 18 12 25 19 16 16 -10 -4 -20 -2 -23 3 -4 6 3 10 15 10 28 0 21 23
-8 25 -11 1 -19 -2 -16 -7 8 -13 -6 -9 -22 6 -11 11 -11 16 -1 19 7 3 6 6 -5
6 -9 1 -19 -5 -21 -11 -3 -7 -6 -3 -6 9 -1 26 -21 42 -21 16 0 -14 -2 -15 -9
-5 -6 10 -10 7 -15 -12 -4 -15 -12 -26 -19 -25 -7 1 -19 1 -27 0 -13 -1 -13
-2 0 -11 10 -6 2 -8 -25 -3 -39 5 -115 40 -113 52 2 19 -3 31 -11 26 -5 -3
-12 4 -16 15 -8 27 -56 27 -75 0 -19 -26 -40 -26 -37 2 1 15 -5 23 -25 29 -25
6 -27 5 -18 -11 19 -36 11 -80 -20 -111 -27 -27 -35 -30 -86 -27 -41 2 -60 8
-72 23 -17 20 -17 20 8 0 14 -11 9 -3 -10 17 -38 41 -50 46 -50 23 0 -10 -11
-15 -35 -15 -41 0 -51 2 -48 12 2 4 -4 5 -12 2 -13 -5 -13 -8 0 -20 8 -8 19
-31 24 -51 20 -73 -31 -131 -106 -119 -21 3 -43 7 -50 8 -7 1 -10 5 -8 9 3 3
-2 12 -10 19 -8 7 -15 27 -15 45 0 43 -10 71 -20 55 -8 -12 -115 -17 -462 -19
-191 -1 -218 -3 -218 -17 0 -13 -11 -15 -72 -10 -40 2 -120 12 -178 21 -58 9
-117 17 -132 18 -16 1 -28 8 -28 15 0 6 -4 12 -10 12 -15 0 -12 21 7 42 28 31
1 20 -54 -22 -78 -59 -64 -41 22 30 44 36 80 58 87 54 6 -4 8 -3 5 3 -7 11
149 121 287 202 383 225 824 363 1277 401 128 10 351 4 522 -15z m-1283 -765
c0 -13 -30 -13 -50 0 -11 7 -7 10 18 10 17 0 32 -4 32 -10z m-1035 -18 c-6 -4
-26 -21 -45 -37 l-35 -30 34 38 c19 20 39 37 45 37 6 0 6 -3 1 -8z m1073 -23
c26 -16 46 -70 37 -99 -7 -23 11 -53 26 -44 5 3 8 2 7 -3 -2 -4 8 -25 21 -46
27 -44 11 -44 195 -3 201 45 326 94 326 127 0 12 16 37 35 56 32 32 39 35 78
30 90 -12 130 -116 68 -178 -22 -21 -39 -29 -66 -29 -23 0 -48 -9 -68 -24 -60
-46 -163 -86 -323 -127 -87 -22 -177 -48 -199 -58 -87 -39 -177 -144 -221
-256 -20 -52 -22 -135 -13 -390 4 -89 1 -105 -18 -142 l-23 -41 68 -8 c37 -5
121 -8 187 -8 96 -1 134 4 190 21 113 35 214 114 315 246 8 10 13 36 12 58 -5
83 62 142 135 118 26 -8 39 -21 50 -47 21 -50 10 -92 -35 -134 -20 -19 -52
-62 -71 -96 -31 -55 -119 -153 -181 -201 -44 -33 -144 -80 -211 -98 -49 -14
-102 -18 -225 -18 l-161 0 19 -45 c13 -30 23 -87 29 -170 5 -69 12 -130 14
-137 3 -8 57 -12 177 -15 169 -3 174 -4 231 -33 115 -58 189 -172 215 -332
l15 -93 51 0 c231 -2 570 -150 761 -334 71 -67 78 -87 44 -130 -33 -42 -70
-35 -137 25 -175 156 -407 266 -615 289 -79 9 -97 8 -129 -6 -44 -20 -97 -13
-122 15 -26 29 -32 95 -11 127 36 55 -12 204 -86 267 -58 50 -94 57 -303 57
-185 0 -187 0 -211 25 -21 21 -25 33 -25 89 0 59 -3 68 -35 106 -37 44 -39 67
-9 101 21 23 17 65 -9 94 -17 21 -34 28 -72 32 -81 7 -95 12 -107 38 -10 22
-3 41 61 168 81 158 77 139 66 367 -9 171 3 239 65 365 28 58 56 98 104 145
36 36 66 69 66 75 0 5 -10 33 -22 62 -17 42 -26 53 -44 53 -40 0 -75 40 -81
92 -3 28 -1 48 6 52 6 4 11 12 11 17 0 6 -5 7 -12 3 -7 -4 -8 -3 -4 5 4 6 11
9 15 7 4 -3 17 5 28 18 18 20 26 23 59 17 22 -4 49 -14 62 -22z m-1164 -53
c-3 -8 -13 -17 -22 -21 -13 -5 -13 -2 3 15 21 24 26 25 19 6z m-44 -40 c0 -2
-8 -10 -17 -17 -16 -13 -17 -12 -4 4 13 16 21 21 21 13z m4370 -96 c0 -5 -2
-10 -4 -10 -3 0 -8 5 -11 10 -3 6 -1 10 4 10 6 0 11 -4 11 -10z m-942 -66 c32
-37 30 -88 -7 -125 -36 -35 -77 -38 -115 -8 -40 31 -49 63 -31 105 27 64 107
79 153 28z m1002 1 c19 -19 32 -35 29 -35 -3 0 -20 16 -39 35 -19 19 -32 35
-29 35 3 0 20 -16 39 -35z m-1350 -130 c48 -25 70 -62 70 -119 0 -46 -4 -56
-32 -84 -43 -41 -100 -50 -148 -24 -37 20 -80 83 -80 118 0 32 41 87 80 106
43 22 72 23 110 3z m-1271 -21 c59 -49 27 -134 -51 -134 -44 0 -82 43 -74 82
7 36 22 57 51 68 32 14 42 12 74 -16z m-268 -63 c56 -57 23 -141 -56 -141 -75
0 -113 92 -60 145 34 35 78 33 116 -4z m3050 12 c13 -16 12 -17 -3 -4 -10 7
-18 15 -18 17 0 8 8 3 21 -13z m-1993 -123 c32 -20 65 -76 60 -102 -7 -31 154
-78 292 -85 120 -6 257 13 348 50 47 18 58 27 66 55 5 18 25 46 44 63 32 28
40 31 84 27 119 -12 158 -151 62 -224 -30 -23 -41 -26 -86 -22 -42 5 -63 0
-115 -23 -106 -47 -168 -60 -323 -66 -171 -6 -252 8 -369 62 -100 46 -118 41
-200 -49 -104 -115 -119 -142 -117 -208 1 -40 -4 -62 -15 -73 -14 -15 -14 -25
7 -120 33 -150 91 -293 126 -311 39 -20 60 -57 57 -97 -3 -28 5 -43 44 -88 45
-52 47 -53 47 -26 0 39 45 169 77 226 81 141 180 229 349 312 106 52 122 63
127 88 8 39 56 87 100 99 72 20 146 -23 168 -98 14 -47 -1 -98 -41 -139 -35
-35 -78 -44 -135 -30 -39 10 -50 8 -101 -15 -143 -66 -266 -163 -329 -261 -18
-28 -45 -85 -60 -127 -25 -69 -27 -87 -23 -175 4 -92 28 -183 48 -183 4 0 10
16 13 35 9 55 75 179 132 248 82 99 267 206 396 229 45 8 70 18 84 34 61 71
180 28 180 -65 0 -69 -58 -107 -134 -90 -55 12 -116 -4 -239 -66 -181 -91
-292 -244 -313 -433 -18 -164 24 -380 132 -674 39 -107 124 -288 134 -288 6 0
30 57 182 430 19 47 45 110 58 140 12 30 47 116 78 190 30 74 84 205 119 290
36 85 69 166 73 180 19 62 67 142 98 160 30 19 51 20 305 20 l274 0 29 -30
c35 -34 35 -35 -16 -150 -19 -41 -48 -111 -65 -155 -17 -44 -89 -215 -160
-380 -70 -165 -172 -403 -225 -530 -133 -314 -407 -954 -494 -1155 -40 -91
-88 -202 -108 -248 -54 -124 -49 -122 -274 -122 l-189 0 -30 28 c-18 16 -49
71 -78 137 -27 61 -97 218 -157 350 -205 458 -435 978 -435 985 0 4 -6 13 -14
19 -15 13 -24 -4 -191 -389 -57 -129 -164 -374 -239 -545 -75 -170 -160 -364
-188 -429 -71 -163 -61 -157 -304 -154 -224 3 -215 0 -262 111 -78 181 -489
1142 -524 1222 -22 50 -66 155 -100 235 -33 80 -115 276 -183 435 -262 618
-285 675 -285 699 0 15 11 33 26 45 26 20 39 21 305 21 l279 0 29 -27 c20 -19
49 -75 89 -173 32 -80 98 -237 145 -350 47 -113 145 -349 217 -525 216 -522
286 -686 296 -687 5 0 28 49 52 108 24 60 79 192 123 294 43 102 79 190 79
195 0 5 20 52 44 104 24 53 59 132 78 176 31 74 38 82 82 104 90 45 290 40
440 -11 80 -27 204 -89 280 -140 93 -63 263 -239 335 -348 60 -90 196 -352
234 -450 10 -25 20 -40 25 -35 5 6 25 51 46 102 l37 92 -24 33 c-93 126 -211
421 -288 721 -41 162 -103 335 -154 438 -58 114 -230 349 -256 349 -53 0 -101
90 -80 151 9 26 8 36 -3 48 -42 49 -101 223 -112 336 -4 36 -10 65 -15 65 -15
0 -59 74 -59 100 0 34 34 88 65 102 14 6 50 48 79 93 30 44 78 103 107 130 48
45 52 53 51 90 -3 51 27 101 71 120 44 19 66 18 105 -5z m-375 -91 c9 -12 17
-32 17 -46 0 -30 -50 -83 -79 -83 -34 0 -72 41 -73 79 -2 72 89 105 135 50z
m-785 -315 c30 -34 28 -70 -7 -105 -35 -35 -77 -38 -113 -9 -32 24 -39 59 -22
99 24 56 99 64 142 15z m1223 -53 c62 -62 21 -161 -66 -161 -51 0 -80 20 -95
66 -33 98 87 169 161 95z m271 -51 c25 -26 29 -36 24 -63 -8 -41 -32 -65 -73
-73 -71 -14 -113 87 -58 141 33 34 70 32 107 -5z m-914 -215 c50 -42 51 -106
2 -155 -15 -15 -33 -20 -69 -20 -43 0 -53 4 -75 31 -38 45 -35 92 8 135 43 43
90 46 134 9z m632 -35 c48 -48 26 -122 -39 -128 -50 -5 -81 21 -81 68 0 67 75
105 120 60z m580 -132 c29 -32 27 -81 -6 -107 -15 -12 -37 -21 -49 -21 -37 0
-75 37 -75 73 0 67 84 104 130 55z m-1545 -23 c14 -13 25 -33 25 -44 0 -13 9
-21 30 -26 16 -3 66 -29 111 -56 45 -27 84 -49 87 -49 3 0 14 7 24 17 26 23
99 20 142 -6 35 -22 66 -73 66 -110 0 -36 -26 -86 -59 -114 -64 -53 -165 -26
-200 54 -15 33 -29 45 -77 68 -33 16 -86 45 -119 65 -43 26 -72 36 -101 36
-42 0 -93 33 -95 62 0 7 -2 20 -4 29 -4 25 23 75 48 87 41 20 96 14 122 -13z
m694 -540 c39 -38 36 -98 -7 -136 -45 -40 -84 -39 -128 5 -47 47 -46 86 1 133
31 31 40 35 72 30 20 -4 48 -18 62 -32z m202 -144 c52 -42 16 -134 -52 -134
-57 0 -99 72 -66 114 32 41 82 49 118 20z"/>
<path d="M5380 7460 c0 -5 5 -10 10 -10 6 0 10 5 10 10 0 6 -4 10 -10 10 -5 0
-10 -4 -10 -10z"/>
<path d="M5701 7438 c-1 -30 -9 -46 -41 -78 -40 -40 -53 -44 -120 -41 -68 3
-249 -140 -353 -279 l-57 -75 50 -3 c97 -6 334 67 500 155 47 24 122 72 168
106 82 62 83 62 80 104 -2 23 -1 40 1 38 7 -8 52 55 46 65 -10 15 -25 12 -19
-5 8 -20 -4 -35 -21 -28 -21 8 -19 24 3 16 14 -5 13 -3 -3 10 -26 21 -95 23
-95 2 0 -8 -6 -15 -12 -15 -7 0 -23 -3 -35 -6 -18 -5 -23 -2 -23 12 0 15 -2
16 -9 5 -7 -11 -9 -11 -14 0 -4 11 -6 11 -6 -1 -1 -8 -9 -20 -19 -26 -16 -10
-17 -8 -14 22 2 18 2 39 -1 46 -3 7 -6 -4 -6 -24z"/>
<path d="M6980 7356 c0 -9 5 -16 10 -16 6 0 10 4 10 9 0 6 -4 13 -10 16 -5 3
-10 -1 -10 -9z"/>
</g>
</svg>
